<svg xmlns="http://www.w3.org/2000/svg" viewBox="0 0 150 165"><defs><linearGradient id="beer" x1="0" y1="0" x2="0" y2="1"><stop offset="0%" stop-color="#ffeab0"/><stop offset="35%" stop-color="#f4c75b"/><stop offset="100%" stop-color="#cf8a18"/></linearGradient><linearGradient id="blueM" x1="0" y1="0" x2="1" y2="1"><stop offset="0%" stop-color="#7fc8ff"/><stop offset="62%" stop-color="#3388da"/><stop offset="100%" stop-color="#18509c"/></linearGradient><clipPath id="bowl"><path d="M20 14 H108 L99 86 C97 107 79 121 64 125 C49 121 31 107 29 86 Z"/></clipPath></defs><path d="M18 12 H110 L101 87 C99 110 81 126 64 131 C47 126 29 110 27 87 Z" fill="#eaf2f8" stroke="#173a60" stroke-width="5"/><path d="M108 31 C127 29 139 40 139 54 C139 70 128 80 109 78" fill="none" stroke="#173a60" stroke-width="5" stroke-linecap="round"/><path d="M29 24 H101 L93 87 C91 102 79 113 64 117 C49 113 37 102 35 87 Z" fill="url(#beer)" clip-path="url(#bowl)"/><path d="M33 44 L45 31 L57 42 L69 22 L84 47 L98 34 L109 49 L109 77 L33 77 Z" fill="url(#blueM)" clip-path="url(#bowl)"/><path d="M43 36 L52 31 L58 37 L69 26 L78 38 L86 32 L95 42 L88 49 L81 43 L73 50 L64 37 L56 48 Z" fill="#f9fdff" clip-path="url(#bowl)"/><path d="M29 21 C38 13 47 17 53 21 C60 12 69 14 74 20 C81 12 91 14 97 20 C104 16 110 19 111 24 L109 33 H29 Z" fill="#fff9ea"/><text x="68" y="72" text-anchor="middle" font-family="Brush Script MT, Segoe Script, cursive" font-size="31" font-weight="700" fill="#d71920" style="paint-order:stroke fill;stroke:#fff;stroke-width:1.8px">SBSC</text><rect x="59" y="129" width="11" height="18" rx="2" fill="#66839f" stroke="#173a60" stroke-width="4"/><ellipse cx="64" cy="153" rx="31" ry="8" fill="#dce8f2" stroke="#173a60" stroke-width="4"/></svg>
